PathFileType	4	(X/Y/Z)	C:\human.trc
DataRate	CameraRate	NumFrames	NumMarkers	Units	OrigDataRate	OrigDataStartFrame	OrigNumFrames
200.00	200.00	      10	35	mm	200.00	1492	      2387
Frame#	Time	HEADF			HEADR			HEADL			RSHO			RELBL			RELBM			RWRISTR			RWRISTU			RMP			LSHO			LELBL			LELBM			LWRISTR			LWRISTU			LMP			RPEL			RHIP			RKNEEO			RANK			RHEEL			RPINKY			RTHUMB			LPEL			LHIP			LKNEEO			LANK			LHEEL			LPINKY			LTHUMB			T1			T7			L5			STERNUP			STERNLOW			SCAP			
		X1	Y1	Z1	X2	Y2	Z2	X3	Y3	Z3	X4	Y4	Z4	X5	Y5	Z5	X6	Y6	Z6	X7	Y7	Z7	X8	Y8	Z8	X9	Y9	Z9	X10	Y10	Z10	X11	Y11	Z11	X12	Y12	Z12	X13	Y13	Z13	X14	Y14	Z14	X15	Y15	Z15	X16	Y16	Z16	X17	Y17	Z17	X18	Y18	Z18	X19	Y19	Z19	X20	Y20	Z20	X21	Y21	Z21	X22	Y22	Z22	X23	Y23	Z23	X24	Y24	Z24	X25	Y25	Z25	X26	Y26	Z26	X27	Y27	Z27	X28	Y28	Z28	X29	Y29	Z29	X30	Y30	Z30	X31	Y31	Z31	X32	Y32	Z32	X33	Y33	Z33	X34	Y34	Z34	X35	Y35	Z35	

1492	7.455	6.36906	119.35056	1463.77319	-73.66562	222.66399	1492.04431	84.37556	138.21431	1476.15295	-125.08838	307.57831	1329.19458	-190.39888	56.90422	1221.95447	-146.51311	67.28314	1171.63123	-132.78755	-167.22037	1250.85791	-154.73940	-163.10391	1186.61963	-162.79480	-241.30632	1198.51428	173.51324	292.30649	1338.86182	229.14824	40.96829	1239.31738	181.48463	53.10641	1176.81567	153.69489	-173.00156	1244.17651	187.50038	-171.51085	1187.73145	172.15649	-262.20581	1188.26843	-98.58195	295.16803	889.28699	-145.84024	363.40637	861.08087	-138.28519	361.71341	441.70587	-118.40166	431.82153	73.55490	-73.54694	465.93661	66.52182	-181.27364	338.04062	46.25483	-118.85680	275.45093	53.84409	136.43396	293.57935	889.21613	185.03371	373.21750	838.85406	185.34846	353.72412	457.62756	173.59262	386.94659	89.55237				212.58063	290.03055	48.89104	133.64734	240.97293	52.73730	20.27194	362.79404	1382.09216	26.41090	445.29553	1218.22131	23.06874	454.64523	956.73981	20.32771	272.36380	1263.21277	20.56886	249.82816	1139.15735	-102.42670	435.12396	1207.67664	
1493	7.460	5.96182	116.15334	1460.85779	-73.92072	219.55289	1490.89941	83.96735	135.44162	1473.88220	-124.99728	306.10092	1328.78125	-190.82506	55.35768	1220.35901	-148.15886	66.18632	1170.51184	-132.89128	-167.96312	1248.99390	-153.98303	-164.44911	1183.95313	-162.80742	-242.19466	1196.62402	173.47543	290.84558	1338.64124	229.39337	39.74786	1237.90308	181.52104	51.04150	1175.05920	153.58841	-174.08109	1242.16809	187.62056	-172.58008	1185.26196	172.08965	-263.73309	1186.16272	-98.57361	295.78958	889.30084	-145.79407	364.14099	861.12952	-137.91104	363.75690	441.65668	-118.43613	431.90518	73.45251	-73.92574	465.94485	66.69601	-181.29167	338.07220	46.24013	-118.83891	275.55817	53.85290	136.40443	294.12274	889.17554	184.76488	373.66022	838.45886	185.29848	353.97302	457.63425	173.63597	386.89880	89.52690	124.33609	431.35876	56.15276	212.61099	290.03018	48.93444	133.78622	241.54407	52.76796	20.06600	360.83936	1382.12903	27.87048	445.22037	1219.62573	23.04495	455.58746	957.62402	21.06095	270.04718	1263.97046	20.81468	249.16853	1138.53503	-102.44903	434.58896	1208.27368	
1494	7.465	5.76005	113.55966	1458.66125	-74.07272	216.33026	1489.44592	83.44539	132.92503	1471.46375	-124.74491	304.85092	1328.35620	-191.07625	54.13375	1219.10083	-148.79349	65.55647	1168.71143	-132.57248	-168.83469	1247.03198	-153.89787	-165.35088	1181.84058	-162.77165	-243.36510	1194.86011	173.39746	288.94025	1338.19263	229.57895	38.66628	1236.34277	181.95508	50.54620	1173.30664	153.62962	-175.24779	1240.01550	187.80627	-173.64691	1183.23584	171.87773	-264.59610	1184.21301	-98.56581	296.28384	889.27338	-145.79102	364.71268	861.15326	-137.97661	364.06256	441.70786	-118.44772	431.80670	73.54028	-74.23257	466.65024	66.08488	-181.30923	338.20425	46.22157	-118.88764	275.46350	53.83029	136.33894	294.79532	889.05029	184.81323	374.29169	838.89691	185.28616	354.33328	457.70105	173.64546	386.89969	89.52718				212.58786	290.02817	48.89164	133.79779	241.56425	52.77998	20.15829	358.75186	1382.21594	26.86849	443.77042	1219.42859	22.97038	455.81650	957.92499				20.66494	248.42697	1137.92346	-102.14996	433.77066	1208.93933	
1495	7.470	5.46811	110.60642	1456.39844	-74.12525	213.53952	1488.00586	83.22572	129.81165	1469.33899	-124.97525	302.46790	1327.96582	-191.51434	53.86271	1217.66724	-148.20839	64.94497	1167.16052	-132.56717	-169.90094	1244.72607	-153.62027	-166.41371	1179.65674	-162.66513	-244.39218	1192.71143	173.39513	287.27856	1338.01953	229.75981	37.68501	1234.87634	182.04752	50.22726	1172.02661	153.39323	-176.32811	1237.45825	187.61278	-174.38310	1180.53259	172.21519	-265.60919	1181.61499	-98.63283	297.05215	889.11829	-145.50832	365.87140	861.19324	-137.98500	364.47223	441.83884	-118.46450	431.80112	73.53398	-73.93589	465.94846	66.70116	-181.14824	338.48529	45.94497	-118.87383	275.47574	53.84043	136.37166	295.53018	888.91980	184.79016	374.87292	838.89526	185.26480	354.71606	457.74042	173.65947	386.90613	89.52174				212.64740	290.09750	48.89358	133.77936	241.53099	52.78023	20.07097	356.79126	1382.04541	26.92498	442.62582	1219.68835	22.79802	456.00690	958.18890				20.93907	247.96941	1137.05603	-102.27805	433.03308	1209.25403	
1496	7.475	5.27660	107.75649	1453.81055	-74.27725	210.67310	1487.02649	82.95519	127.36903	1467.67822	-124.80787	301.39267	1327.96069	-191.75327	52.55652	1216.09399	-149.53593	63.81875	1165.75061	-132.22070	-171.45798	1242.28455	-153.49437	-167.14473	1177.78894	-162.65417	-245.49948	1190.74426	173.36086	285.42227	1337.56482	229.87373	36.25172	1233.33716	181.29674	49.57389	1171.02161	153.43730	-177.73512	1235.04004	187.82251	-175.91203	1178.47278	172.10652	-266.74182	1179.52148	-98.65737	297.73102	888.93518	-145.55231	366.53842	861.24597	-138.15913	364.75140	441.91541	-118.48616	431.79031	73.50650	-73.93347	465.94519	66.69960	-181.16579	338.48862	45.92396	-118.89573	275.49536	53.81648	136.38782	296.22446	888.82037	184.85069	375.71310	838.90192	185.30067	355.15533	457.71539	173.67711	386.91040	89.52232				212.65102	290.08105	48.89684	133.78577	241.55736	52.77660	20.36966	354.72424	1382.29260	26.88951	441.40128	1219.85132	22.77991	456.25500	958.63458				20.62078	247.15331	1136.21594	-102.24014	431.31796	1209.57141	
1497	7.480	4.98972	105.08680	1451.36328	-74.46224	208.26898	1485.70801	82.44621	124.62569	1465.39087	-124.80508	299.88907	1327.64941	-192.12300	51.66116	1214.81750	-148.59000	62.43047	1164.40063	-132.13422	-172.53676	1239.88904	-152.57678	-168.55507	1175.01526	-162.57971	-246.43283	1188.61487	173.08795	283.84769	1337.00488	229.87073	35.05654	1231.77368	181.77654	49.09377	1169.45496	153.61555	-178.85738	1232.58496	188.07941	-176.66479	1176.13452	172.23106	-267.35828	1176.39050	-98.70535	298.15958	888.84393	-145.86607	366.89777	861.13123	-138.22563	365.15756	441.90964	-118.51248	431.87680	73.40784	-74.26837	466.66806	66.08505	-181.19090	338.27667	45.97528	-118.90224	275.47824	53.83312	136.36284	296.84427	888.70673	184.57642	376.61401	838.98468	185.30675	355.45251	457.76370	173.70061	386.91803	89.52464	124.42199	431.37738	56.16288	212.65326	290.08609	48.89067	133.80948	241.54745	52.81570	20.02975	352.99695	1382.55176	26.95968	440.43997	1220.47424	22.75643	456.66953	959.14294				20.82302	246.79419	1135.77551	-102.17069	430.26401	1209.93152	
1498	7.485	4.92560	102.31979	1448.58203	-74.97948	204.83965	1483.83240	82.18506	121.40974	1463.16235	-124.81224	298.30945	1327.29407	-191.14977	50.76376	1212.26733	-148.09491	61.64684	1163.04407	-131.90091	-173.48094	1237.84021	-153.32515	-169.38326	1172.96484	-162.57637	-247.46359	1186.54089	173.42470	281.90479	1336.81995	230.03651	33.68388	1230.36353	183.09241	46.00701	1167.24194	153.50365	-179.74869	1230.19299	188.18591	-178.11917	1172.90295	172.09660	-268.94363	1174.29272	-98.74573	298.65399	888.69366	-145.87476	367.51993	861.17029	-138.28302	365.49402	441.82187	-118.53465	431.77332	73.48365	-74.25580	466.65552	66.11156	-181.19554	338.49060	45.92142	-118.88390	275.44312	53.86167	136.34814	297.55634	888.61176	184.44122	377.24399	838.83459	185.33820	355.87607	457.72720	173.68750	386.97647	89.53986				212.87169	290.92770	48.34979	133.80702	241.55554	52.82017	20.60911	350.90253	1382.42932	27.56842	439.48697	1220.81836	22.71650	457.09326	959.65466				20.96395	246.18866	1134.94104	-102.13978	429.04333	1210.13477	
1499	7.490	4.78592	99.30089	1446.22986	-75.31850	202.04683	1482.66589	81.43340	119.16892	1460.47583	-124.73987	295.89539	1327.31079	-191.18585	49.52798	1210.65173	-149.98964	60.47381	1161.45801	-131.78737	-174.60631	1235.49402	-153.63196	-170.04401	1170.75269	-162.49840	-248.68741	1184.23181	173.29178	279.99014	1336.42566	230.34503	32.31419	1228.73730	181.58701	45.81766	1166.23157	153.41307	-180.97652	1227.41565	187.99600	-178.58534	1170.76929	172.40030	-269.85995	1171.53552	-98.64551	299.45166	888.54114	-145.96291	368.44925	861.12427	-138.35237	366.01846	441.83475	-118.57957	431.85242	73.37166	-74.24432	466.64435	66.12809	-181.20625	338.49286	45.90628	-118.86644	275.52414	53.87675	136.35545	298.11450	888.51208	184.39807	378.34219	838.95129	185.35423	356.22495	457.70474	173.73181	386.92825	89.51591	124.43069	431.37872	56.16388	212.71263	289.57724	48.89394	133.67574	241.02307	52.88297	20.02245	348.45590	1382.63904	27.87090	438.84009	1221.92651	22.58751	457.46201	959.91785				20.54444	245.56961	1134.80261	-102.14114	428.19122	1210.84753	
1500	7.495	4.47678	96.83272	1443.64905	-75.49984	198.18567	1480.67712	81.47423	116.03353	1458.60205	-124.75982	294.44241	1327.04626	-191.84491	47.98623	1209.15576	-149.20811	59.92523	1159.67554	-131.56477	-175.64043	1232.90344	-154.79750	-171.36691	1168.99207	-162.57143	-249.59160	1181.98022	173.37718	278.35135	1335.65576	230.87410	31.37403	1227.67249	182.67488	44.63570	1164.42456	153.49153	-182.30977	1225.13330	188.47394	-180.42592	1167.80798	172.31688	-271.18689	1169.16589	-98.68247	300.01126	888.38043	-146.02637	369.20007	861.22357	-138.39043	366.27646	441.86401	-118.59545	431.75024	73.44566	-73.98174	465.95126	66.72256	-181.21251	338.28049	45.95173	-118.86420	275.53540	53.87846	136.38617	298.73883	888.41650	184.34120	378.91525	839.05048	185.37709	356.75009	457.69144	173.74745	386.93808	89.50987				212.88420	290.94485	48.34510	133.68134	241.03574	52.88888	20.61492	346.12582	1382.32727	28.15756	438.18115	1222.63403	22.44222	457.71597	960.12714				21.15188	245.01143	1133.72107	-103.30288	426.18402	1210.28833	
1501	7.500	4.27225	93.89182	1441.02795	-75.81318	195.42126	1479.09070	81.32699	112.79823	1456.93481	-124.56400	292.93155	1326.69116	-191.52283	46.72057	1207.41406	-149.74048	59.06509	1158.18530	-131.24892	-176.86394	1230.36194	-154.24245	-172.11305	1165.84363	-162.54781	-250.82272	1179.66870	173.35855	276.51654	1335.37012	230.69942	30.08871	1225.08032	183.01538	44.52762	1162.54016	153.81821	-183.08846	1222.10974	188.35358	-181.03879	1165.64807	172.27086	-272.16855	1166.65308	-98.74846	300.55661	888.21912	-146.05951	369.75397	861.16577	-138.45226	366.58307	441.90152	-118.62823	431.83508	73.34719	-74.57182	466.68616	66.31101	-181.21841	338.28186	45.94214	-118.85218	275.53204	53.88762	136.30460	299.32962	888.25403	184.52237	379.46912	839.07172	185.37486	357.19360	457.72110	173.76599	386.95352	89.50684				212.88393	290.93417	48.34008	133.80789	241.55989	52.84491	20.75400	344.17047	1382.76123	28.02169	437.07715	1223.02100	22.29299	458.15689	960.46063				20.82873	244.35930	1133.09204	-103.33956	425.28760	1210.85278	
